<?xml version="1.0" encoding="utf-8"?>
<!-- Generator: Adobe Illustrator 17.1.0, SVG Export Plug-In . SVG Version: 6.00 Build 0)  -->
<!DOCTYPE svg PUBLIC "-//W3C//DTD SVG 1.1//EN" "http://www.w3.org/Graphics/SVG/1.1/DTD/svg11.dtd">
<svg fill="#ffffff" version="1.1" id="Layer_1" xmlns="http://www.w3.org/2000/svg" xmlns:xlink="http://www.w3.org/1999/xlink" x="0px" y="0px"
	 viewBox="0 0 496.8 215.4" enable-background="new 0 0 496.8 215.4" xml:space="preserve">
<path d="M164.1,144c2.2,0,4.3,0.5,6.2,1.3v-27.8l0-9.6l-18.7-47.6h-47.7l-17.1,45.8v39.2c1.9-0.9,4-1.3,6.2-1.3
	c8.4,0,15.1,6.8,15.1,15.1c0,8.4-6.8,15.1-15.1,15.1c-2.2,0-4.3-0.5-6.2-1.3v42.6h18.5l22.8-61.4l24.9,61.4h17.2l0-42.5
	c-1.9,0.9-4,1.3-6.2,1.3c-8.4,0-15.1-6.8-15.1-15.1C148.9,150.8,155.7,144,164.1,144z"/>
<path d="M91.5,147.7c-1.9,0.3-3.7,1-5.3,2.2l-2.8,2.1l0.1-45L67,60.2H0l54.8,155.2h28.8l-0.1-48.9c0,0,2.8,2.1,2.8,2.1
	c5,3.7,12.4,2.6,16.2-2.4C108.5,158.2,101.5,146.3,91.5,147.7z"/>
<path id="XMLID_15_" d="M411.4,215.4V173c-1.9,0.9-4,1.3-6.2,1.3c-8.4,0-15.1-6.8-15.1-15.1c0-8.4,6.8-15.1,15.1-15.1
	c2.2,0,4.3,0.5,6.2,1.3v-37.7l-18.5-47.5h-47.7l-17.3,47.5v37.8c1.9-0.9,4-1.3,6.2-1.3c8.4,0,15.1,6.8,15.1,15.1
	c0,8.4-6.8,15.1-15.1,15.1c-2.2,0-4.3-0.5-6.2-1.3v42.3h18.7l22.8-61.4l24.5,61.4H411.4z"/>
<path id="XMLID_10_" d="M414.7,166.7l-0.3,48.7h30.2l52.3-155.2h-67.1l-15.1,45.2l0.2,46.6L412,150c-1.6-1.1-3.4-1.9-5.3-2.2
	c-9.9-1.4-17,10.6-10.9,18.6c3.8,5,11.2,6.1,16.2,2.4C412,168.7,414.7,166.7,414.7,166.7z"/>
<path id="XMLID_123_" d="M199.6,0L185,57.6h49.7c-0.9-1.9-1.3-4-1.3-6.2c0-8.4,6.8-15.1,15.1-15.1c8.4,0,15.1,6.8,15.1,15.1
	c0,2.2-0.5,4.3-1.3,6.2h50.2L297.5,0H199.6z"/>
<path d="M334,147.5c-3.8,0-7.2,1.8-9.4,4.6l-0.1-48h0l0,0l-11.1-42.6l-57.5,0c0,0,2.1-2.8,2.1-2.8c3.7-5,2.6-12.4-2.4-16.2
	c-8-6-19.9,1-18.5,10.9c0.3,1.9,1,3.7,2.2,5.3l2.1,2.8l-57.4,0l-10.1,39.6l0.2,51c-2.2-2.8-5.6-4.6-9.4-4.6
	c-6.6,0-11.9,5.3-11.9,11.9c0,6.6,5.3,11.9,11.9,11.9c3.8,0,7.2-1.8,9.4-4.6l0.1,48.8h25.7h1h13.5l8.9-36.4l23.4,0v-16
	c0,0,2.8,2.1,2.8,2.1c5,3.7,12.4,2.6,16.2-2.4c6-8-1-19.9-10.9-18.6c-1.9,0.3-3.7,1-5.3,2.2l-2.8,2.1v-20.2l-10.9,0l3.8-14.2h-0.1
	l8.9-33.1l12.9,47.3l-11.4,0v13.5c1.9-0.9,4-1.3,6.2-1.3c8.4,0,15.1,6.8,15.1,15.1c0,8.4-6.8,15.1-15.1,15.1c-2.2,0-4.3-0.5-6.2-1.3
	v9.7h26.7l8.9,36.4h12.1h3h23.7l0.1-48.8c2.2,2.8,5.6,4.6,9.4,4.6c6.6,0,11.9-5.3,11.9-11.9C345.9,152.8,340.6,147.5,334,147.5z"/>
</svg>
